<?xml version="1.0" encoding="UTF-8" standalone="no"?><!DOCTYPE svg PUBLIC "-//W3C//DTD SVG 1.1//EN" "http://www.w3.org/Graphics/SVG/1.1/DTD/svg11.dtd"><svg width="100%" height="100%" viewBox="0 0 300 300" version="1.1" xmlns="http://www.w3.org/2000/svg" xmlns:xlink="http://www.w3.org/1999/xlink" xml:space="preserve" xmlns:serif="http://www.serif.com/" style="fill-rule:evenodd;clip-rule:evenodd;stroke-linejoin:round;stroke-miterlimit:2;"><g><path d="M33.333,300l233.334,0c18.409,0 33.333,-14.924 33.333,-33.333l0,-233.334c0,-18.409 -14.924,-33.333 -33.333,-33.333l-233.334,-0c-18.409,-0 -33.333,14.924 -33.333,33.333l-0,233.334c-0,18.409 14.924,33.333 33.333,33.333Zm225,-41.667l-44.518,0l0,-75.824c0,-20.789 -7.899,-32.407 -24.354,-32.407c-17.9,0 -27.252,12.09 -27.252,32.407l-0,75.824l-42.903,0l-0,-144.444l42.903,-0l-0,19.457c-0,-0 12.9,-23.87 43.552,-23.87c30.638,-0 52.572,18.709 52.572,57.404l0,91.453Zm-212.364,0l44.737,0l-0,-144.444l-44.737,-0l-0,144.444Zm22.153,-163.358c-14.613,0 -26.455,-11.935 -26.455,-26.654c-0,-14.72 11.842,-26.654 26.455,-26.654c14.614,-0 26.449,11.934 26.449,26.654c-0,14.719 -11.835,26.654 -26.449,26.654Z" style="fill:#fff;"/></g></svg>